# xmcd
# Track frame offsets:
# 150
# 17823
# 41496
# 61119
#
# Disc length: 1073 seconds
# Revision: 0
# Processed by: cddbd v1.5.2PL0 Copyright (c) Steve Scherf et al.
# Submitted via: VisiTrax 2.11.3.279 - For more info visit www.synapsa.com
#
DISCID=28042f04
DTITLE=Adele - Adele 21 Deluxe Edition Bonus Tracks [CD2]
DYEAR=2011
DGENRE=
TTITLE0=Need You Now Featuring Darius Rucker (Live At CMT Artists Of The Yea
TTITLE0=r Awards)
TTITLE1=Someone Like You (Live Acoustic)
TTITLE2=Turning Tables (Live Acoustic)
TTITLE3=Don't You Remember (Live Acoustic)
EXTD=
EXTT0=
EXTT1=
EXTT2=
EXTT3=
PLAYORDER=
